0
SECTION
2
HEADER
9
$INSUNITS
70
4
9
$ACADVER
1
AC1014
9
$HANDSEED
5
FFFF
0
ENDSEC
0
SECTION
2
TABLES
0
TABLE
2
VPORT
5
8
100
AcDbSymbolTable
0
ENDTAB
0
TABLE
2
LTYPE
5
5
100
AcDbSymbolTable
0
LTYPE
5
14
100
AcDbSymbolTableRecord
100
AcDbLinetypeTableRecord
2
BYBLOCK
70
0
0
LTYPE
5
15
100
AcDbSymbolTableRecord
100
AcDbLinetypeTableRecord
2
BYLAYER
70
0
0
ENDTAB
0
TABLE
2
LAYER
5
2
100
AcDbSymbolTable
70
2
0
LAYER
5
50
100
AcDbSymbolTableRecord
100
AcDbLayerTableRecord
2
0
70
0
6
CONTINUOUS
0
ENDTAB
0
TABLE
2
STYLE
5
3
100
AcDbSymbolTable
70
1
0
STYLE
5
11
100
AcDbSymbolTableRecord
100
AcDbTextStyleTableRecord
2
STANDARD
70
0
0
ENDTAB
0
TABLE
2
VIEW
5
6
100
AcDbSymbolTable
70
0
0
ENDTAB
0
TABLE
2
UCS
5
7
100
AcDbSymbolTable
70
0
0
ENDTAB
0
TABLE
2
APPID
5
9
100
AcDbSymbolTable
70
2
0
APPID
5
12
100
AcDbSymbolTableRecord
100
AcDbRegAppTableRecord
2
ACAD
70
0
0
ENDTAB
0
TABLE
2
DIMSTYLE
5
A
100
AcDbSymbolTable
70
1
0
ENDTAB
0
TABLE
2
BLOCK_RECORD
5
1
100
AcDbSymbolTable
70
1
0
BLOCK_RECORD
5
1F
100
AcDbSymbolTableRecord
100
AcDbBlockTableRecord
2
*MODEL_SPACE
0
BLOCK_RECORD
5
1B
100
AcDbSymbolTableRecord
100
AcDbBlockTableRecord
2
*PAPER_SPACE
0
ENDTAB
0
ENDSEC
0
SECTION
2
BLOCKS
0
BLOCK
5
20
100
AcDbEntity
100
AcDbBlockBegin
2
*MODEL_SPACE
0
ENDBLK
5
21
100
AcDbEntity
100
AcDbBlockEnd
0
BLOCK
5
1C
100
AcDbEntity
100
AcDbBlockBegin
2
*PAPER_SPACE
0
ENDBLK
5
1D
100
AcDbEntity
100
AcDbBlockEnd
0
ENDSEC
0
SECTION
2
ENTITIES
0
LWPOLYLINE
5
100
100
AcDbEntity
8
0
100
AcDbPolyline
90
84
70
1
43
0.0
10
-214.99999999999997
20
0
10
-214.99999999999997
20
-19.545454545454547
10
-211.99999999999994
20
-19.545454545454547
10
-211.99999999999994
20
-39.090909090909093
10
-214.99999999999997
20
-39.090909090909093
10
-214.99999999999997
20
-58.636363636363633
10
-211.99999999999994
20
-58.636363636363633
10
-211.99999999999994
20
-78.181818181818187
10
-214.99999999999997
20
-78.181818181818187
10
-214.99999999999997
20
-97.727272727272734
10
-211.99999999999994
20
-97.727272727272734
10
-211.99999999999994
20
-117.27272727272727
10
-214.99999999999997
20
-117.27272727272727
10
-214.99999999999997
20
-136.81818181818181
10
-211.99999999999994
20
-136.81818181818181
10
-211.99999999999994
20
-156.36363636363637
10
-214.99999999999997
20
-156.36363636363637
10
-214.99999999999997
20
-175.90909090909091
10
-211.99999999999994
20
-175.90909090909091
10
-211.99999999999994
20
-195.45454545454547
10
-214.99999999999997
20
-195.45454545454547
10
-214.99999999999997
20
-215
10
-195.45454545454547
20
-215
10
-195.45454545454547
20
-212
10
-175.90909090909091
20
-212
10
-175.90909090909091
20
-215
10
-156.36363636363637
20
-215
10
-156.36363636363637
20
-212
10
-136.81818181818181
20
-212
10
-136.81818181818181
20
-215
10
-117.27272727272727
20
-215
10
-117.27272727272727
20
-212
10
-97.727272727272734
20
-212
10
-97.727272727272734
20
-215
10
-78.181818181818187
20
-215
10
-78.181818181818187
20
-212
10
-58.636363636363633
20
-212
10
-58.636363636363633
20
-215
10
-39.090909090909093
20
-215
10
-39.090909090909093
20
-212
10
-19.545454545454547
20
-212
10
-19.545454545454547
20
-215
10
3.5527136788005009e-14
20
-215
10
3.1579677144893343e-14
20
-195.45454545454547
10
-2.9999999999999689
20
-195.45454545454547
10
-2.9999999999999689
20
-175.90909090909091
10
3.1641356201816961e-14
20
-175.90909090909091
10
2.368475785867001e-14
20
-156.36363636363637
10
-2.9999999999999765
20
-156.36363636363637
10
-2.9999999999999765
20
-136.81818181818181
10
2.3869795029440866e-14
20
-136.81818181818181
10
1.5789838572446671e-14
20
-117.27272727272727
10
-2.9999999999999849
20
-117.27272727272727
10
-2.9999999999999849
20
-97.727272727272734
10
1.5543122344752192e-14
20
-97.727272727272734
10
7.8949192862233357e-15
20
-78.181818181818187
10
-2.9999999999999929
20
-78.181818181818187
10
-2.9999999999999929
20
-58.636363636363633
10
7.7715611723760958e-15
20
-58.636363636363633
10
0
20
-39.090909090909093
10
-3.0000000000000004
20
-39.090909090909093
10
-3.0000000000000004
20
-19.545454545454547
10
0
20
-19.545454545454547
10
3.5527136788005009e-14
20
0
10
-19.545454545454547
20
0
10
-19.545454545454547
20
-3.0000000000000004
10
-39.090909090909093
20
-3.0000000000000004
10
-39.090909090909093
20
0
10
-58.636363636363633
20
0
10
-58.636363636363633
20
-3.0000000000000004
10
-78.181818181818187
20
-3.0000000000000004
10
-78.181818181818187
20
0
10
-97.727272727272734
20
0
10
-97.727272727272734
20
-3.0000000000000004
10
-117.27272727272727
20
-3.0000000000000004
10
-117.27272727272727
20
0
10
-136.81818181818181
20
0
10
-136.81818181818181
20
-3.0000000000000004
10
-156.36363636363637
20
-3.0000000000000004
10
-156.36363636363637
20
0
10
-175.90909090909091
20
0
10
-175.90909090909091
20
-3.0000000000000004
10
-195.45454545454547
20
-3.0000000000000004
10
-195.45454545454547
20
0
0
ENDSEC
0
SECTION
2
OBJECTS
0
DICTIONARY
5
C
100
AcDbDictionary
3
ACAD_GROUP
350
D
3
ACAD_MLINESTYLE
350
17
0
DICTIONARY
5
D
100
AcDbDictionary
0
DICTIONARY
5
1A
330
C
100
AcDbDictionary
0
DICTIONARY
5
17
100
AcDbDictionary
0
ENDSEC
0
EOF
