<svg xmlns="http://www.w3.org/2000/svg" width="192" height="192" fill="#fef8fa" viewBox="0 0 256 256"><rect width="256" height="256" fill="none"></rect><line x1="128" y1="176" x2="128" y2="80" fill="none" stroke="#fef8fa" stroke-linecap="round" stroke-linejoin="round" stroke-width="24"></line><path d="M72,180H64A48,48,0,0,1,48,86.7V72a40,40,0,0,1,80,0V184" fill="none" stroke="#fef8fa" stroke-linecap="round" stroke-linejoin="round" stroke-width="24"></path><path d="M184,180h8a48,48,0,0,0,16-93.3V72a40,40,0,0,0-80,0" fill="none" stroke="#fef8fa" stroke-linecap="round" stroke-linejoin="round" stroke-width="24"></path><path d="M88,88v8a28,28,0,0,1-28,28" fill="none" stroke="#fef8fa" stroke-linecap="round" stroke-linejoin="round" stroke-width="24"></path><path d="M168,88v8a28,28,0,0,0,28,28" fill="none" stroke="#fef8fa" stroke-linecap="round" stroke-linejoin="round" stroke-width="24"></path><path d="M104,147.3A40,40,0,1,1,48,184v-6.7" fill="none" stroke="#fef8fa" stroke-linecap="round" stroke-linejoin="round" stroke-width="24"></path><path d="M152,147.3A40,40,0,1,0,208,184v-6.7" fill="none" stroke="#fef8fa" stroke-linecap="round" stroke-linejoin="round" stroke-width="24"></path></svg>